:SAMPLES-PER-SECOND 30
:FULLY-SPECIFIED
:DEGREES
477
root  -16.9855 38.2421 -20.8631 9.85211 72.8985 15.378
RightUpLeg  -17.3903 -6.37185 2.68889
RightLeg  10.2609 -4.519 1.15793
RightFoot  -6.7704 -0.120117 3.73873
RightToes  1.45519e-009 0 -3.6325e-017
Spine  7.67402 -3.02917 -8.39755
Spine1  11.7631 -5.9373 7.80993
HEad  -36.0824 -3.56408 -4.21667
LeftShoulder1  -0.334336 4.5616 -25.3393
LeftArm  3.12805 -6.3257 -56.9642
LeftForeArm  24.043 -16.1507 -6.33838
LeftHand  0.0251971 9.50571 2.06164
RightShoulder  -0.719445 -5.71715 25.853
RightArm  9.91213 -12.7821 44.656
RightForeArm  25.7334 9.24931 5.09435
RightHand  0.173422 1.06042 3.0137
LeftUpLeg  22.4388 11.2874 -3.92011
LeftLeg  13.4111 -8.39301 -3.40118
LeftFoot  -16.6636 0.00306739 -2.10304
LeftToes  -2.53752e-010 -2.07034e-011 -2.70101e-011
478
root  -15.4149 38.1887 -20.5731 6.32861 74.1629 11.2812
RightUpLeg  -18.6987 -4.81726 4.7757
RightLeg  15.0651 -4.69121 0.00659705
RightFoot  -2.10507 0.561713 -7.51513
RightToes  1.45519e-009 0 -3.6325e-017
Spine  7.12484 -3.44382 -5.66826
Spine1  11.145 -6.31222 8.89368
HEad  -35.3068 -5.43163 -3.87242
LeftShoulder1  -0.354711 4.60863 -25.8563
LeftArm  3.81527 -5.14747 -57.7566
LeftForeArm  26.639 -15.2077 -6.95526
LeftHand  -0.0431325 9.6733 0.264916
RightShoulder  -0.81961 -6.02007 25.9362
RightArm  9.30956 -14.1462 43.0089
RightForeArm  22.7402 10.4237 4.63567
RightHand  0.118444 0.819958 2.18355
LeftUpLeg  23.2426 14.1269 0.327
LeftLeg  17.1734 -14.9741 -5.11339
LeftFoot  -14.6932 -0.0574691 -4.83528
LeftToes  -2.53752e-010 -2.07034e-011 -2.70101e-011
479
root  -13.8771 37.9907 -20.2507 0.32489 74.1981 4.93147
RightUpLeg  -19.5291 -3.85036 7.10968
RightLeg  20.5443 -4.84128 -1.91194
RightFoot  -0.872044 0.919132 -10.1131
RightToes  1.45519e-009 0 -3.6325e-017
Spine  7.15443 -3.37645 -1.93343
Spine1  9.87456 -5.60491 8.54143
HEad  -34.9056 -7.70268 -3.71575
LeftShoulder1  -0.358317 4.59798 -26.5289
LeftArm  3.01596 -4.00433 -58.1625
LeftForeArm  30.679 -14.3083 -7.31971
LeftHand  -0.106163 9.8965 -1.28623
RightShoulder  -0.904994 -6.2239 26.6973
RightArm  8.92091 -13.8289 41.5661
RightForeArm  19.0788 9.88126 4.56578
RightHand  0.0967029 2.14658 1.28385
LeftUpLeg  21.1595 14.9826 4.30548
LeftLeg  26.5399 -18.6272 -9.52195
LeftFoot  -11.0095 0.116109 -9.57852
LeftToes  -2.53752e-010 -2.07034e-011 -2.70101e-011
480
root  -12.5798 37.781 -19.9941 -6.04041 73.9133 -2.17207
RightUpLeg  -20.0398 -4.2823 9.17531
RightLeg  24.5413 -4.20227 -2.33095
RightFoot  -2.33024 0.828902 -10.7103
RightToes  1.45519e-009 0 -3.6325e-017
Spine  7.89671 -3.44008 1.68479
Spine1  8.10752 -5.00506 8.53961
HEad  -34.253 -8.87139 -3.1121
LeftShoulder1  -0.332842 4.50308 -27.104
LeftArm  1.74694 -2.42916 -58.312
LeftForeArm  33.3509 -14.0639 -7.22433
LeftHand  -0.155861 9.82319 -2.55395
RightShoulder  -0.813402 -5.95961 26.4945
RightArm  8.00582 -12.1533 41.6938
RightForeArm  18.7132 8.86965 4.36714
RightHand  0.128706 2.59258 1.64313
LeftUpLeg  15.1016 12.4719 6.24055
LeftLeg  39.1481 -17.6515 -14.4168
LeftFoot  -3.32699 1.16918 -16.0811
LeftToes  -2.53752e-010 -2.07034e-011 -2.70101e-011
481
root  -11.4677 37.5111 -19.7004 -11.3638 74.8206 -7.36769
RightUpLeg  -20.0173 -5.51532 10.4379
RightLeg  28.8165 -4.43679 -2.89744
RightFoot  -5.24947 0.585073 -11.5658
RightToes  1.45519e-009 0 -3.6325e-017
Spine  9.39781 -3.89668 2.92486
Spine1  7.24794 -5.32271 10.4917
HEad  -33.9179 -10.054 -1.99896
LeftShoulder1  -0.309249 4.4206 -27.5196
LeftArm  0.868839 -1.86759 -58.2401
LeftForeArm  33.8699 -13.5591 -7.33851
LeftHand  -0.20636 9.8424 -3.8436
RightShoulder  -0.732617 -5.75059 25.9583
RightArm  6.76013 -9.19925 43.0503
RightForeArm  19.1136 8.18285 4.07603
RightHand  0.0692769 1.46585 1.05539
LeftUpLeg  7.80624 7.51386 6.53551
LeftLeg  51.34 -13.5229 -17.0633
LeftFoot  8.14823 3.38511 -19.9092
LeftToes  -2.53752e-010 -2.07034e-011 -2.70101e-011
482
root  -10.3824 37.3608 -19.3663 -15.3318 75.6848 -10.5566
RightUpLeg  -18.5188 -6.62817 10.9371
RightLeg  31.5244 -4.68198 -3.35812
RightFoot  -8.22166 0.25609 -11.3666
RightToes  1.45519e-009 0 -3.6325e-017
Spine  10.5057 -4.22008 4.16116
Spine1  7.42548 -5.15335 10.8861
HEad  -33.3522 -12.3559 0.10296
LeftShoulder1  -0.225718 4.18265 -27.0694
LeftArm  0.99859 -2.39385 -58.0661
LeftForeArm  34.4942 -12.7485 -7.82457
LeftHand  -0.209411 10.8953 -3.01086
RightShoulder  -0.761307 -5.82215 26.199
RightArm  5.81211 -6.25615 44.2822
RightForeArm  20.0289 9.46802 3.81474
RightHand  0.134658 1.49098 2.13778
LeftUpLeg  1.73846 2.69339 6.51304
LeftLeg  60.0418 -10.2081 -17.9242
LeftFoot  16.8641 5.08822 -20.5441
LeftToes  -2.53752e-010 -2.07034e-011 -2.70101e-011
483
root  -9.12583 37.504 -18.9865 -15.3022 74.0881 -9.78769
RightUpLeg  -15.3261 -5.58161 10.9601
RightLeg  31.6276 -4.50562 -3.25836
RightFoot  -9.97804 0.0651164 -11.1468
RightToes  1.45519e-009 0 -3.6325e-017
Spine  10.6799 -3.39716 5.92876
Spine1  7.49791 -3.48591 8.85993
HEad  -31.8792 -14.4197 1.77089
LeftShoulder1  -0.178586 4.03679 -27.2859
LeftArm  1.11787 -2.67711 -56.8768
LeftForeArm  35.5823 -12.8893 -7.76184
LeftHand  -0.215836 10.3397 -3.56225
RightShoulder  -0.770125 -5.84746 26.2212
RightArm  6.47586 -3.612 45.5869
RightForeArm  19.1447 11.7952 3.92526
RightHand  0.131723 1.26165 2.17701
LeftUpLeg  -2.77902 0.873788 6.84929
LeftLeg  65.1967 -7.08093 -15.7493
LeftFoot  13.7976 3.95278 -17.8974
LeftToes  -2.53752e-010 -2.07034e-011 -2.70101e-011
484
root  -7.8278 37.743 -18.5766 -11.2799 71.8995 -5.38358
RightUpLeg  -12.2176 -4.24677 10.004
RightLeg  31.1334 -3.72669 -2.69425
RightFoot  -11.57 -0.0995206 -11.2237
RightToes  1.45519e-009 0 -3.6325e-017
Spine  10.3573 -2.42425 6.26177
Spine1  7.24786 -1.98374 7.01542
HEad  -30.0551 -15.7223 2.37999
LeftShoulder1  -0.262142 4.27593 -27.7735
LeftArm  2.26001 -1.74255 -54.9097
LeftForeArm  32.647 -14.426 -7.15018
LeftHand  -0.183284 9.97986 -3.08706
RightShoulder  -0.699377 -5.66225 25.73
RightArm  9.67091 -0.931926 46.8615
RightForeArm  16.6571 15.2206 4.20148
RightHand  0.130501 1.93882 1.93675
LeftUpLeg  -7.13433 -0.137359 6.1036
LeftLeg  67.0194 -4.79717 -11.6295
LeftFoot  11.0447 2.15848 -11.264
LeftToes  -2.53752e-010 -2.07034e-011 -2.70101e-011
485
root  -6.55236 37.9755 -18.1876 -8.66315 70.0545 -2.35033
RightUpLeg  -8.89721 -3.59798 8.88456
RightLeg  30.0433 -2.54391 -1.86177
RightFoot  -13.0753 -0.253984 -10.9087
RightToes  1.45519e-009 0 -3.6325e-017
Spine  10.0428 -1.95533 6.85065
Spine1  7.16215 -0.981624 5.01608
HEad  -28.1688 -16.4235 1.89563
LeftShoulder1  -0.30991 4.41339 -27.8921
LeftArm  3.57819 -0.141439 -52.9772
LeftForeArm  28.2782 -16.4009 -6.2699
LeftHand  -0.129973 9.68335 -1.99752
RightShoulder  -0.644228 -5.52126 25.2228
RightArm  13.9299 1.93788 47.8485
RightForeArm  13.5535 19.9439 4.25599
RightHand  0.062448 3.1108 0.609937
LeftUpLeg  -11.0802 -1.6596 5.30843
LeftLeg  66.2635 -2.47845 -5.56919
LeftFoot  9.69916 1.07268 -6.11548
LeftToes  -2.53752e-010 -2.07034e-011 -2.70101e-011
486
root  -5.29552 38.2189 -17.7691 -5.8797 66.9612 0.36322
RightUpLeg  -5.92239 -2.84649 7.78696
RightLeg  28.4057 -0.522176 -0.657727
RightFoot  -14.0453 -0.3552 -10.9901
RightToes  1.45519e-009 0 -3.6325e-017
Spine  9.32812 -1.01477 7.27288
Spine1  7.03374 0.300675 2.91662
HEad  -26.7967 -15.8258 0.134836
LeftShoulder1  -0.301761 4.38949 -27.8864
LeftArm  4.47516 1.88575 -51.0009
LeftForeArm  23.8542 -18.2357 -5.42809
LeftHand  -0.0883354 9.87766 -0.833446
RightShoulder  -0.590971 -5.37783 24.7943
RightArm  15.6861 4.69411 48.1083
RightForeArm  14.2859 26.004 4.75848
RightHand  0.0423797 3.77297 0.272973
LeftUpLeg  -14.4533 -1.77238 4.84745
LeftLeg  62.7552 -0.630787 -0.760653
LeftFoot  7.77054 0.564397 -3.60797
LeftToes  -2.53752e-010 -2.07034e-011 -2.70101e-011
487
root  -4.05192 38.4434 -17.3467 -4.14575 63.8943 2.31398
RightUpLeg  -2.61828 -2.65909 6.50051
RightLeg  26.5776 2.05122 0.524078
RightFoot  -14.7169 -0.431406 -11.2459
RightToes  1.45519e-009 0 -3.6325e-017
Spine  9.14156 -0.3769 7.7119
Spine1  6.7974 1.28875 0.642125
HEad  -26.5446 -13.0044 -2.18359
LeftShoulder1  -0.346253 4.51534 -28.0555
LeftArm  4.50798 3.81808 -48.8673
LeftForeArm  20.7859 -19.5171 -4.88343
LeftHand  -0.0399305 9.73294 0.332968
RightShoulder  -0.557291 -5.28445 24.5139
RightArm  15.52 7.51946 47.9599
RightForeArm  16.0493 32.3923 6.24335
RightHand  0.0378774 4.08979 0.179587
LeftUpLeg  -16.4988 -1.84593 4.26149
LeftLeg  56.5286 0.204695 0.88402
LeftFoot  5.39309 0.107714 -0.986272
LeftToes  -2.53752e-010 -2.07034e-011 -2.70101e-011
